<svg xmlns="http://www.w3.org/2000/svg" style="display:block" viewBox="0 0 2048 2038" width="985" height="980" preserveAspectRatio="none"><defs><linearGradient id="a" gradientUnits="userSpaceOnUse" x1="1255.2" y1="1348.35" x2="1261.34" y2="1357.94"><stop class="stop0" offset="0" stop-color="#B6BAB1"/><stop class="stop1" offset="1" stop-color="#92929B"/></linearGradient></defs><path fill="#FEFEFE" d="m614.718 623.999 1.363-.764c12.527-7.09 21.246-17.457 33.803-24.752 15.876-9.223 37.754-6.538 53.144-12.985 36.578-15.321 64.567-44.617 107.653-39.672 26.428 3.033 50.224 13.614 71.398 30.092 7.809 4.381 24.033 29.861 30.802 30.976 11.89 1.96 29.969-9.173 43.649-9.899 22.885-1.158 43.298 8.812 65.96 10.172 19.52 1.172 37.57-7.324 56.29-7.876 56.97-1.68 110.57 30.775 135.89 80.752 13.58-14.965 23.81-30.314 36.38-44.334a161.524 161.524 0 0 1 110.45-53.132c19.5-1.005 42.78 1.37 61.19 8.279 6.09 2.286 26.17 12.285 30.9 11.895 8.55-.703 25.17-12.004 35.59-15.467 22.19-7.379 37.3-8.148 60.15-7.219 24.33.99 40.57 16.012 61.88 19.836 21.95 3.939 46.22-3.541 69.29 2.718 17.56 4.764 36.24 19.176 52.97 20.808 7.6.741 29.19-21.292 41.06-25.477 8.55-3.535 17.84-6.16 26.84-8.285 52.78-12.465 115.55-1.594 155.81 35.731 55.56 51.515 54.04 121.227 15.99 182.299-6.19 11.035-13.71 22.287-18.95 33.709-9.75 21.252-16.8 53.766-34.72 69.951-26.99 24.364-36.78 37.616-52.31 71.196 47.76 4.828 84.93 5.924 118.59 46.499 13.73 16.55 23.65 39.22 27.4 60.46 6.77 38.37 1.74 82.34.92 121.43-.56 26.85-.48 53.22-3.19 79.67-5.23 51-19.97 97.86-61.66 130.62-30.98 24.35-63.96 36.51-103.31 38.48-17.64.88-35.77.75-53.25 2.61-19.87 2.11-37.94 9.57-58.36 7.32-15.62-1.72-32.28-10.51-47.21-11.32-19.41-1.06-38.44 5.41-58.49 3.06-16.01-1.89-30.04-9.48-45.34-9.99-8.31-.27-21.06 5.77-29.5 8.74-18.56 6.53-40.73 6.17-60.09 3.48-15.12-2.1-29.2-8.46-42.69-15.62-9.78-5.19-26.68-21.01-35.6-22.95-5.97-1.29-25.86 7.18-32.84 9.92-63.03 24.71-119.34 56.85-189.6 35.63-17.05-5.15-30.88-19.84-47.05-27.61-14.3 2.97-22.93 10.71-35.73 14.97-40.58 13.53-88.99 8.87-125.207-14.36-7.09-4.54-12.647-9.48-19.463-13.9-17.287 8.08-22.332 16.01-36.244 28.33-4.887 4.33-15.081 10.96-20.706 14.32-85.011 51.21-188.6 61.28-281.885 27.42-10.93-3.96-26.374-9.88-35.977-15.84-19.105-11.86-35.775-27.85-56.822-36.56-25.774 12.19-34.229 19.89-64.822 23.94-27.585 4.87-50.914-9.91-77.167-12.62-13.758-.94-27.316 6.93-40.463 8.52-12.01 1.46-26.154.03-38.463-.27-34.116-.84-73.185 4.62-105.56-7.62-107.004-40.46-93.726-187.25-86.549-279.07 1.485-18.89 2.615-37.23 3.891-56.07 1.073-14.53 8.278-38.34 5.954-53.2-.667-4.27-13.304-12.6-17.347-15.18-26.469-16.89-45.232-36.22-62.532-62.201A327.724 327.724 0 0 1 5.025 886.531C2.765 876.523 2.347 864.099 0 854.798v-32.601c5.233-26.454 4.715-39.454 19.216-65.159 15.703-27.835 36.475-37.115 58.054-58.69 7.983-8.128 12.997-19.403 20.24-27.987 18.72-22.184 38.781-43.837 62.731-60.524 36.991-25.772 84.258-28.747 127.656-22.634 14.446 2.035 28.676 13.376 43.184 15.426 5.483.705 25.632-11.471 33.457-14.345 21.064-7.737 43.887-10.168 66.163-8.261 22.738 1.947 41.026 15.989 62.895 20.579 20.604 4.324 41.481-2.127 61.662 3.678 22.52 6.477 35.261 17.286 59.46 19.719zm97.469-30.544c-48.792 2.833-59.617 9.896-95.902 41.131-43.715-16.288-79.677-34.742-125.707-23.498-3.766-2.071-7.586-4.104-11.354-6.156-49.225-26.809-100.326-21.89-146.096 9.511a172.226 172.226 0 0 0-130.912-15.016c-36.344 10.709-58.983 31.639-81.862 60.301-6.581 7.111-13.786 14.153-20.141 21.396-3.57 4.068-11.89 21.088-15.066 23.075-25.946 16.239-44.04 30.309-59.23 58.536C2.754 805.783 8.103 865.056 21.9 910.417c18.592 61.274 52.38 114.863 109.813 146.553 2.354 1.3 6.03 3.04 8.498 4.05-6.566 51.73-9.723 104.39-12.007 156.48-1.539 35.09-4.266 74.41-.028 109.21 3.659 30.06 13.671 63.69 32.353 87.74 22.914 29.71 57.333 43.08 93.759 47.53 27.41 3.35 51.148-7.2 79.658-1.78 13.193 2.51 41.903-7.89 55.201-11.91 26.323 10.91 43.495 17.16 72.962 15.12 31.785-2.2 45.894-11.52 72.111-27.27 17.249 12.82 32.379 24.81 51.242 35.37 104.721 58.57 239.343 51.19 337.045-18.53 15.058-10.74 28.449-23.73 42.565-35.75 47.399 40.62 98.649 52.42 158.299 26.39 8.13-3.54 16.11-8.84 24.32-12.01 29.48 27.72 56.68 38.53 97.45 37.33 42-1.23 73.33-19.69 111.61-33.45 19.96-7.48 43.73-16.71 64.63-21.26 33.21 29.09 57.6 44.86 104.69 42.45 23.49-1.2 34.22-8.07 54.85-16.62 37.37 14.2 69.33 17.75 109.19 8.5 26.04 9.74 48.89 17.26 76.94 10.87 3.83-.87 22.16-6.25 24.14-6.05 68.33 6.73 142.46-12.75 183.37-71.49 16.12-23.15 27.66-55.58 25.58-83.74-1.71-23.09 2.7-32.45 7.23-54.35 1.57-7.62.52-20.25.47-28.16-5.85-51.26 12.42-106.37-12.1-154.96-22.02-43.63-62.88-68.039-110.73-70.629-10.6-.455-21.27.542-31.84 1.303l.58-1.385c3.79-9.03 28.21-54.846 33.77-59.584 23.51-19.598 44.55-42.726 52.52-73.3 4.41-20.654 16.03-39.915 27.48-57.573 46.08-71.055 24.59-158.397-53.74-193.803-21.92-9.91-74.02-12.804-98.41-9.985a125.711 125.711 0 0 0-33.44 8.645c-19.82 8.38-26.95 17.68-42.34 30.407-47.07-17.314-77.05-37.653-129.49-24.208-55.01-31.694-101.79-31.142-154.99 4.098-67.3-36.201-138.79-32.169-194.96 24.846-6.23 6.317-11.19 14.09-17.12 20.698-12.23 12.63-19.79 20.926-30.32 35.154-8.45-16.493-16.79-33.399-31.02-45.851-44.35-38.808-102.69-55.376-158.45-31.737-45.983-18.696-69.972-17.343-115.135 1.507-8.714-12.403-17.979-25.664-29.876-35.206-21.376-17.144-57.092-31.6-84.601-29.821-32.441 4.991-57.998 16.5-81.441 39.199z"/><path d="M793.628 554.256c27.509-1.779 63.225 12.677 84.601 29.821 11.897 9.542 21.162 22.803 29.876 35.206 45.163-18.85 69.152-20.203 115.135-1.507 55.76-23.639 114.1-7.071 158.45 31.737 14.23 12.452 22.57 29.358 31.02 45.851 10.53-14.228 18.09-22.524 30.32-35.154 5.93-6.608 10.89-14.381 17.12-20.698 56.17-57.015 127.66-61.047 194.96-24.846 53.2-35.24 99.98-35.792 154.99-4.098 52.44-13.445 82.42 6.894 129.49 24.208 15.39-12.727 22.52-22.027 42.34-30.407a125.711 125.711 0 0 1 33.44-8.645c24.39-2.819 76.49.075 98.41 9.985 78.33 35.406 99.82 122.748 53.74 193.803-11.45 17.658-23.07 36.919-27.48 57.573-7.97 30.574-29.01 53.702-52.52 73.3-5.56 4.738-29.98 50.554-33.77 59.584l-.58 1.385c10.57-.761 21.24-1.758 31.84-1.303 47.85 2.59 88.71 26.999 110.73 70.629 24.52 48.59 6.25 103.7 12.1 154.96.05 7.91 1.1 20.54-.47 28.16-4.53 21.9-8.94 31.26-7.23 54.35 2.08 28.16-9.46 60.59-25.58 83.74-40.91 58.74-115.04 78.22-183.37 71.49-1.98-.2-20.31 5.18-24.14 6.05-28.05 6.39-50.9-1.13-76.94-10.87-39.86 9.25-71.82 5.7-109.19-8.5-20.63 8.55-31.36 15.42-54.85 16.62-47.09 2.41-71.48-13.36-104.69-42.45-20.9 4.55-44.67 13.78-64.63 21.26-38.28 13.76-69.61 32.22-111.61 33.45-40.77 1.2-67.97-9.61-97.45-37.33-8.21 3.17-16.19 8.47-24.32 12.01-59.65 26.03-110.9 14.23-158.299-26.39-14.116 12.02-27.507 25.01-42.565 35.75-97.702 69.72-232.324 77.1-337.045 18.53-18.863-10.56-33.993-22.55-51.242-35.37-26.217 15.75-40.326 25.07-72.111 27.27-29.467 2.04-46.639-4.21-72.962-15.12-13.298 4.02-42.008 14.42-55.201 11.91-28.51-5.42-52.248 5.13-79.658 1.78-36.426-4.45-70.845-17.82-93.759-47.53-18.682-24.05-28.694-57.68-32.353-87.74-4.238-34.8-1.511-74.12.028-109.21 2.284-52.09 5.441-104.75 12.007-156.48-2.468-1.01-6.144-2.75-8.498-4.05-57.432-31.69-91.22-85.279-109.813-146.553-13.797-45.361-19.146-104.634 4.019-147.682 15.19-28.227 33.283-42.297 59.229-58.536 3.176-1.987 11.497-19.007 15.066-23.075 6.355-7.243 13.56-14.285 20.141-21.396 22.879-28.662 45.518-49.592 81.862-60.301a172.226 172.226 0 0 1 130.912 15.016c45.77-31.401 96.871-36.32 146.096-9.511 3.768 2.052 7.588 4.085 11.354 6.156 46.03-11.244 81.992 7.21 125.707 23.498 36.285-31.235 47.11-38.298 95.902-41.131 23.443-22.699 49-34.208 81.441-39.199zm35.365 365.466c-.243-7.366-2.143-66.295-3.684-67.955-5.353 13.728-9.822 29.107-16.811 41.718-3.824 6.902-10.283 14.363-14.835 20.973l11.304 1.776a1462.412 1462.412 0 0 1 24.026 3.488zm567.057-126.885c.38 14.782.88 29.562 1.5 44.336 1.27 24.631 4.54 60.696-.03 85.18-1.2 6.463-13.74 27.376-11.56 30.366 12.19-12.86 14.76-18.293 17.61-35.39 2.58-26.201-.3-49.8.31-75.795-.73-3.783-.84-9.026-1.05-12.988-2.64-13.245.83-30.479-1.58-42.112l-.41 10.461-.74.44c-1.19-1.587-2.39-3.364-4.05-4.498zM714.195 1259.26c.785-4.05 1.972-6.29.57-9.54-3.058-1.1-3.786-.9-7.01-.96 1.341 3.19 3.211 8.81 5.418 10.96l1.022-.46z"/><path fill="#CE4340" d="M890.435 1051.44c88.586 78.62 100.094 212.83 26.184 305.38-73.909 92.55-207.349 111.02-303.611 42.01-96.263-69-121.631-201.3-57.72-301.02 63.911-99.714 194.715-131.919 297.616-73.27 11.795.2 32.936 12.74 38.729 22.86-.458 2.07-.384 2.11-1.198 4.04zm-176.24 207.82c.785-4.05 1.972-6.29.57-9.54-3.058-1.1-3.786-.9-7.01-.96 1.341 3.19 3.211 8.81 5.418 10.96l1.022-.46z"/><path fill="#340607" d="M852.904 1024.54c11.795.2 32.936 12.74 38.729 22.86-.458 2.07-.384 2.11-1.198 4.04a222.682 222.682 0 0 0-37.531-26.9z"/><path d="M674.232 1017.57c100.72-34.422 211.334 11.3 258.357 106.79 47.023 95.49 15.831 211.04-72.855 269.9a212.111 212.111 0 0 1-35.668 19.03c-73.139 30.46-157.164 17.53-217.758-33.51-60.595-51.05-87.615-131.65-70.024-208.9a211.996 211.996 0 0 1 9.959-31.88c1.652-4.11 3.433-8.17 5.339-12.17a211.288 211.288 0 0 1 12.331-22.31 211.544 211.544 0 0 1 60.16-61.97c2.633-1.79 5.306-3.51 8.017-5.17a211.657 211.657 0 0 1 42.142-19.81zm39.963 241.69c.785-4.05 1.972-6.29.57-9.54-3.058-1.1-3.786-.9-7.01-.96 1.341 3.19 3.211 8.81 5.418 10.96l1.022-.46z"/><path fill="#1F0001" d="M563.913 1104.52a211.544 211.544 0 0 1 60.16-61.97c-1.458 9.48-37.666 33.2-39.296 37.76l2.032 1.5c-1.053 3.65-15.647 20.96-19.246 23.09l-3.65-.38z"/><path fill="#340607" d="M632.09 1037.38a211.657 211.657 0 0 1 42.142-19.81c-.656 2.56-1.192 5.34-4.012 6.45-9.777 3.86-27.872 15.5-38.13 13.36zM546.243 1139c.309 6.85-.002 8.9-2.469 15.29-.952 3.81-2.452 12.37-5.836 15.03-1.739 1.36-.205-.52-1.654 1.56a211.996 211.996 0 0 1 9.959-31.88zM824.066 1413.29l.62-.87c11.048-8.24 20.721-19.45 35.048-18.16a212.111 212.111 0 0 1-35.668 19.03z"/><path fill="#1F0001" d="M551.582 1126.83c2.388 5.93 2.067 5.25-.879 12.4-2.064 5.01-4.722 9.97-6.929 15.06 2.467-6.39 2.778-8.44 2.469-15.29 1.652-4.11 3.433-8.17 5.339-12.17z"/><path fill="#E93C3C" d="M841.388 1207.68c5.593-18.39 15.638-22.36 31.212-11.09 1.582 2.46 1.495 2.27 4.108 3.64-1.365 3.03-2.671 6.02-4.192 8.97-8.261 13.93-18.728 15.22-21.732 26-.198-2.52.562-5.26-.508-6.64l-2.983 6.82c3.053 5.52 3.241 4.78 7.815 8.37.253 10.95 2.36 40.25-2.648 48.21-.663 1.52-1.451 2.82-1.597 4.32-2.154 2.79-3.292 4.99-6.544 6.11-3.788-.14-6.935-2.19-10.368-3.94-3.818-.48-3.758-2.5-4.874-5.53l-116.223.04c-10.366.02-68.493 1.53-73.666-2.67-2.669-7.88-1.452-36.93-1.315-47.11l2.105-1.65c20.01-15.43-22.961-29.27-19.336-45.4 5.508-6.92 14.141-6.94 21.538-3.44 4.249-.29 7.642-1.07 10.993 1.58 11.391 1.57 35.613-.4 48.48-.24 45.964.56 91.604-.74 137.597 1.02-1.199 5.4-2.165 8.89-2.378 14.47.374 5.39 1.427 21.71.807 26.61-1.675 13.23-4.316 19.82-3.699 33.77-7.249.34-15.344-.85-22.475-.67-14.29.37-28.513.68-42.804.84-6.054.07-11.799-1.32-16.967-.61 4.065 6.77 78.823 6.74 86.964 2.91 3.214-7.32.046-48.32 2.69-64.69zm-127.193 51.58c.785-4.05 1.972-6.29.57-9.54-3.058-1.1-3.786-.9-7.01-.96 1.341 3.19 3.211 8.81 5.418 10.96l1.022-.46z"/><path fill="#E93C3C" d="M653.173 1194.27c11.391 1.57 35.613-.4 48.48-.24 45.964.56 91.604-.74 137.597 1.02-1.199 5.4-2.165 8.89-2.378 14.47-1.344 8.26-.347 25.21-1.845 30.16l-1.06.69c-14.23-1.95-55.576-1.82-71.069-.8l-11.058.44-6.778.02c-22.592-.68-45.197-.87-67.798-.58-7.365-.11-12.346-.29-19.653.69l-.526-.27c-1.67-3.42-1.147-11.51-1.197-15.89.33-12.55.124-17.54-2.715-29.71z"/><path fill="#4D0101" d="M833.98 1269.9c-7.249.34-15.344-.85-22.475-.67-14.29.37-28.513.68-42.804.84-6.054.07-11.799-1.32-16.967-.61 4.065 6.77 78.823 6.74 86.964 2.91 3.214-7.32.046-48.32 2.69-64.69 1.081 22.09.741 46.21.627 68.45-39.943.32-79.889.39-119.833.21-22.112-.02-49.465.7-71.15-.22-.121-10.45-.661-25.08-.113-35.14 2.118-.41 1.316-.14 3.127-1.53 1.712-3.55 1.522-11.04 1.842-15.47.05 4.38-.473 12.47 1.197 15.89l.526.27c7.307-.98 12.288-.8 19.653-.69 22.601-.29 45.206-.1 67.798.58l6.778-.02 11.058-.44c15.493-1.02 56.839-1.15 71.069.8l1.06-.69c1.498-4.95.501-21.9 1.845-30.16.374 5.39 1.427 21.71.807 26.61-1.675 13.23-4.316 19.82-3.699 33.77zm-119.785-10.64c.785-4.05 1.972-6.29.57-9.54-3.058-1.1-3.786-.9-7.01-.96 1.341 3.19 3.211 8.81 5.418 10.96l1.022-.46z"/><path fill="#13090A" d="M762.898 1239.57c15.493-1.02 56.839-1.15 71.069.8 1.496 4.19-2.143 17.62-1.351 27.99-11.421-.37-77.729.59-83.794-1.21l-1.561-4.5-1.27-.6c-3.119-6.68-2.681-15.02-.929-22.02l6.778-.02 11.058-.44z"/><path d="m751.84 1240.01 11.058-.44c-2.836 6.91.687 10.22 7.378 11.68 6.586 6.84.143 5.65-.77 14.77-2.703 1.91-16.057.82-20.684 1.13l-1.561-4.5-1.27-.6c-3.119-6.68-2.681-15.02-.929-22.02l6.778-.02z"/><path fill="#1F0001" d="m745.062 1240.03 6.778-.02c-3.184 2.03-3.103 1.08-3.808 4.93-.993 5.43-.313 12.21-.771 17.71l-1.27-.6c-3.119-6.68-2.681-15.02-.929-22.02z"/><path fill="#340607" d="M770.276 1251.25c2.399-2.6.94-1.88 4.584-2.08 4.705 4.5 1.55 10.46-1.107 15.14-2.259 1.16-1.816 1.05-4.247 1.71.913-9.12 7.356-7.93.77-14.77zM809.338 1248.47c8.329.72 5.434 5.95 9.469 13.54-2.368.55-4.039.64-6.455.87-5.428-3.17-5.024-8.99-3.014-14.41z"/><path fill="#13090A" d="M677.264 1239.45c22.601-.29 45.206-.1 67.798.58-1.752 7-2.19 15.34.929 22.02-2.243 3.18-2.975 4.89-7.808 5.44-18.375 2.08-37.043-1.11-55.689.43l.192-26.94c-2.288-.33-3.358-.5-5.422-1.53zm36.931 19.81c.785-4.05 1.972-6.29.57-9.54-3.058-1.1-3.786-.9-7.01-.96 1.341 3.19 3.211 8.81 5.418 10.96l1.022-.46z"/><path fill="#340607" fill-opacity=".988" d="M707.755 1248.76c3.224.06 3.952-.14 7.01.96 1.402 3.25.215 5.49-.57 9.54l-1.022.46c-2.207-2.15-4.077-7.77-5.418-10.96z"/><path d="M657.611 1240.14c7.307-.98 12.288-.8 19.653-.69 2.064 1.03 3.134 1.2 5.422 1.53l-.192 26.94c-7.581.22-12.653 1.36-20.092 2.79-3.883-8.5-4.921-21.24-4.791-30.57z"/><path fill="#13090A" d="M642.18 1192.69c4.249-.29 7.642-1.07 10.993 1.58 2.839 12.17 3.045 17.16 2.715 29.71-.32 4.43-.13 11.92-1.842 15.47-1.811 1.39-1.009 1.12-3.127 1.53.211-16.25 3.51-36.34-8.739-48.29z"/><path fill="#4D0101" d="M868.421 1206.18c2.094 1.86 1.696 1.76 4.095 3.02-8.261 13.93-18.728 15.22-21.732 26-.198-2.52.562-5.26-.508-6.64l-2.983 6.82c-.424-12.32 11.775-18.24 21.128-29.2z"/><path fill="#13090A" d="M829.077 1292.92c8.461-.04 15.018-.03 23.383-.96-.663 1.52-1.451 2.82-1.597 4.32-2.154 2.79-3.292 4.99-6.544 6.11-3.788-.14-6.935-2.19-10.368-3.94-3.818-.48-3.758-2.5-4.874-5.53z"/><path fill="#4D0101" d="M833.951 1298.45c3.411-2.36 12.625-2.22 16.912-2.17-2.154 2.79-3.292 4.99-6.544 6.11-3.788-.14-6.935-2.19-10.368-3.94z"/><path fill="#340607" d="M872.6 1196.59c1.582 2.46 1.495 2.27 4.108 3.64-1.365 3.03-2.671 6.02-4.192 8.97-2.399-1.26-2.001-1.16-4.095-3.02 1.79-3.31 2.801-6.08 4.179-9.59z"/><path fill="#E93C3C" d="m595.781 1239.44-2.719-2.96c-3.52-3.83-8.06-8.97-9.227-16-2.978-17.93-2.623-60.77 19.656-66.97 8.751-2.44 10.512 12.14 10.355 19.47.186 5.91-.386 5.1-3.493 10.83 3.071 11.35 4.211 15.69 9.919 25.77 5.128 9.05 20.119 16.53 21.268 23.65-1.761 2.93-2.061 2.8-5.016 4.38-5.433.08-7.359-2.88-11.754-6.82-4.329-1.39-7.388-3.23-11.154-2.19-1.642 2.47-1.504 4.58-1.779 7.56a195.468 195.468 0 0 1 3.252 52.88c-.66 9.38-3.94 33.03-11.224 39.31-17.806 3.96-8.71-23.47-7.256-32.91a172.143 172.143 0 0 0-.828-56z"/><path fill="#CE4340" d="M598.286 1168.51c3.564-3.03 2.702-3.32 6.348-3.44 4.144 3.45 4.763 13.06 5.719 18.74 3.071 11.35 4.211 15.69 9.919 25.77 5.128 9.05 20.119 16.53 21.268 23.65-1.761 2.93-2.061 2.8-5.016 4.38-5.433.08-7.359-2.88-11.754-6.82-3.589-3.54-6.463-7.24-9.645-11.14-12.011-18.31-13.589-29.9-16.839-51.14z"/><path fill="#4D0101" d="M607.468 1218.43c-7.603-14.03-15.423-36.29-12.887-52.4.336 3.77.169 7.44 1.832 10.57 1.74-3.32 1.59-4.42 1.873-8.09 3.25 21.24 4.828 32.83 16.839 51.14-2.988.11-4.786-.51-7.657-1.22z"/><path fill="#13090A" d="M594.581 1166.03c3.24-4.73 7.183-9.25 13.152-4.7 5.455 4.16 3.653 7.39 6.113 11.65.186 5.91-.386 5.1-3.493 10.83-.956-5.68-1.575-15.29-5.719-18.74-3.646.12-2.784.41-6.348 3.44-.283 3.67-.133 4.77-1.873 8.09-1.663-3.13-1.496-6.8-1.832-10.57z"/><path fill="#1F0001" d="M607.468 1218.43c2.871.71 4.669 1.33 7.657 1.22 3.182 3.9 6.056 7.6 9.645 11.14-4.329-1.39-7.388-3.23-11.154-2.19-1.642 2.47-1.504 4.58-1.779 7.56-1.332-5.85-2.916-11.89-4.369-17.73z"/><path fill="#E93C3C" d="M876.708 1200.23c6.584-12.54 4.356-29.98 11.087-35.32 3.968-.25 2.004-.65 5.827 2.3.391 3.41.763 6.18 1.368 9.56l1.451-.07 2.451-3.94.373 1.04c1.619-1.91 3.497-2.66 5.761-3.99 3.597 15.33 8.014 41.34 2.014 57.66-2.608 4.57-8.911 8.65-10.23 13.86-4.287 16.92-3.947 36.2-1.456 53.3.715 10.11 10.59 28.95-2.88 34.41-1.5.61-4.596-.11-5.295-1.39-12.429-22.74-12.375-62.55-7.453-86.74-4.496-2.71-11.934-3.67-17.583-5.43-6.1 3.61-5.613 3.08-11.359-.28 3.004-10.78 13.471-12.07 21.732-26 1.521-2.95 2.827-5.94 4.192-8.97z"/><path fill="#CE4340" d="M876.708 1200.23c6.584-12.54 4.356-29.98 11.087-35.32 3.968-.25 2.004-.65 5.827 2.3.391 3.41.763 6.18 1.368 9.56l1.451-.07 2.451-3.94.373 1.04c-1.468 8.9-2.287 14.88-5.155 23.3-2.885 8.47-8.265 18.52-10.288 26.8l-4.096 17.01c-4.496-2.71-11.934-3.67-17.583-5.43-6.1 3.61-5.613 3.08-11.359-.28 3.004-10.78 13.471-12.07 21.732-26 1.521-2.95 2.827-5.94 4.192-8.97z"/><path fill="#4D0101" d="M893.622 1167.21c.391 3.41.763 6.18 1.368 9.56l1.451-.07 2.451-3.94.373 1.04c-1.468 8.9-2.287 14.88-5.155 23.3-2.885 8.47-8.265 18.52-10.288 26.8-2.559-2.48-3.135-2.47-6.375-3.83 10.942-21.66 14.309-27.33 16.175-52.86z"/><path fill="#340607" d="M877.447 1220.07c3.24 1.36 3.816 1.35 6.375 3.83l-4.096 17.01c-4.496-2.71-11.934-3.67-17.583-5.43 5.033-5.77 9.029-7.44 15.304-15.41z"/><path fill="#E93C3C" d="M608.132 1110.75c11.905-5.01 18.249 1.82 30.153 4.72 2.646.65 5.308 2.57 6.799 4.88-1.956 5.43-13.081 5.4-18.244 5.55l-3.436 1.98-.37 2.28c3.796 1.17 6.415 1.28 8.79 3.88-1.818 26.71-45.664 12.16-25.789-21.04l2.097-2.25z"/><path fill="#CE4340" d="M608.132 1110.75c11.905-5.01 18.249 1.82 30.153 4.72 2.646.65 5.308 2.57 6.799 4.88-1.956 5.43-13.081 5.4-18.244 5.55-10.306-2.27-13.013-6.74-18.708-15.15z"/><path fill="#340607" d="m606.035 1113 2.097-2.25c5.695 8.41 8.402 12.88 18.708 15.15l-3.436 1.98-.37 2.28c-9.836-1.23-13.881-8.94-16.999-17.16z"/><path fill="#E93C3C" d="M887.664 1114.79c11.126 14.08.001 39.79-20.04 31.06-4.811-5.04-5.594-7.16-8.641-13.27 16.629-3.07 17.687-4.95 28.681-17.79z"/><path fill="#CE4340" d="M873.786 1108.93c2.97-.48 6.4-.16 9.183 1.03l.675 2.13c-3.014 6.01-8.209 9.47-13.465 13.64l-12.593.1c-4.262-1.03-8.31-1.43-10.397-5.51 2.605-4.66 17.561-7.09 25.265-10.75l1.332-.64zM898.892 1172.76c.528-10.79-9.872-19.01-19.2-5.96l-.864-1.12c-1.767-12.32 17.54-18.17 26.198 4.13-2.264 1.33-4.142 2.08-5.761 3.99l-.373-1.04z"/><path fill="#FEFEFE" d="M227.51 1103.15c13.637 20.12 3.625 49.58 10.575 60.24 7.037-4.09-13.031-92.04 34.338-72.21 21.571 9.04 23.013 54.52 27.184 73.62 7.856 35.96 11.464 78.67 23.486 113.1 7.446-19.07 11.564-48.44 16.271-69.26 4.594-22.32 10.203-44.27 15.5-66.44 3.164-13.25 3.597-32.23 10.676-43.87 5.438-8.94 31.887-6.36 41.424-5.89 36.418 24.22 39.303 108.12 49.262 147.04 7.6 29.71 36.638 155.97-35.606 107.04-2.786-8.17-4.062-14.33-4.386-22.95-1.637-43.55-12.772-85.27-22.045-127.58-1.307-5.96-2.522-12.27-4.306-18.14l-1.258-.52-2.374 1.79c.342 5.88-23.47 84.06-26.878 89.04-8.786 19.34-9.986 67.91-24.616 81.16-3.131 2.83-7.624 5.16-11.963 4.68-19.765-2.18-33.251-112.22-49.284-130.81-.82 1.82 2.082 112.78 2.332 124.05-4.527 4.88-5.435 5.76-11.1 9.26-8.295-.86-18.288-1.57-24-8.45-18.528-22.28-15.483-208.59-13.232-244.9z"/><path fill="#323132" d="M359.373 1268.16c-5.603-5.25-4.005-12.56-1.995-19.26 4.404-14.68 18.747-76.65 26.217-86.06 3.419.47 2.029-.24 4.424 1.96.812 3.87-1.33 8.95-2.571 12.95l.803 1.37c.342 5.88-23.47 84.06-26.878 89.04z"/><path d="M274.384 1118.7c3.194.38 3.314.13 5.929 1.86 4.325 9.51 8.612 36.07 10.413 46.8 2.06 12.27 14.244 60.55 10.851 70.68-2.007-4.91-5.92-26.23-7.604-32.55-4.089-15.34-22.409-74.25-19.589-86.79z"/><path fill="#FEFEFE" d="m1183.76 1166.4.41-1.8c1.92-8.1 5.37-16.16 13-20.39 10.39-5.75 23.11-9.59 34.53-12.94 18.61-5.46 143.54-35.53 152.74-32.66 6.38 1.99 11.92 7.88 14.67 13.83 1.67 3.61 2.68 8.32.69 12.04-1.85 3.48-6.57 5.39-10.04 6.74-25.89 10.09-54.29 15.89-81 23.67-24.03 7-47.31 16.05-71.28 23.16 1.69 8.88 2.28 13.58 2.85 22.61 8.3-1.87 20.15-6.21 28.36-8.99 40.74-13.8 77.57-31.39 121.51-29.55 8.53 6.98 24.22 22.66 19.84 34.35-7.45 17.78-39.01 17.29-56.28 21.32-39.68 9.27-71.4 20.96-108.08 38.56 1.64 9.41 2.03 19.79 2.15 29.32 12.7-3.23 32.81-11.55 45.78-16.49 22.01-8.45 44.17-16.5 66.47-24.15 16.69-5.76 30.43-11.08 48.13-12.81 22.57 10.03 26.08 26.18 26.82 48.33.76 5.89-1.17 18.93-7.41 21.68-13.5 6.1-28.81 7.2-42.91 11.43-33.02 9.89-69.8 18.61-101.21 32.76-13.32 7.94-40.85 19.08-56.77 15.88-4.12-2.46-19.44-25.36-20.19-30.71-7.5-53.08-4.66-114.39-22.78-165.19z"/><path fill="url(#a)" d="m1280.95 1342.71 2.55 3.71c-13.32 7.94-40.85 19.08-56.77 15.88 2.88-.05 5.69.3 8-1.17l.29-3.34 1.75 1.47c9.74-.65 33.94-12.16 44.18-16.55z"/><path fill="#13090A" d="M1235.02 1357.79c6.35-5.28 32.94-15.47 42.24-16.94 2.22-.35 2.47.57 3.69 1.86-10.24 4.39-34.44 15.9-44.18 16.55l-1.75-1.47z"/><path d="m1336.46 1209.2 1.12.56c-23.4 16.48-52.08 22.22-78.89 35.43l-1.68-1.18c-.43-6.5 8.09-12.29 13.36-13.89 22.24-6.76 44.12-13.16 66.09-20.92z"/><path fill="#FEFEFE" d="M1469.45 1076.25c4.77-.62 9.59-.74 14.39-.37 57.23 4.62 157.39 66.16 193.66 109.29-1.51 29.12-4.43 31.12-33.09 29.49-14.03-.79-29.03-1.47-43.14-2.35 14.38 24.16 27.58 48.89 39.95 74.85 4.62 9.69 23.8 49.61 9.27 60.04-6.05 4.34-22.79.21-30.57-1.47-5.62-15.44-16.42-35.86-23.38-52.48-12.95-33.42-20.68-47.74-40.46-77.64-7.32-1.77-24.43-5.39-31.6-3.73-1.67 4.9 4.18 80.72 4.67 89.84.57 11.77.86 23.55.87 35.33-5.73 6.09-9.98 10.99-17.79 14.59-6.86 3.16-20.4-14.24-21.09-19.26-5.62-40.8-9.46-82.1-19.82-122.13-17.02-14.17-47.79-37.45-8.34-48.11-1.86-13.21-6.42-24.26-7.74-37.2-.6-5.85 3.33-9.16 7.21-13-11.88-15.47-13.41-29.04 7-35.69z"/><path d="M1506.92 1129.11c16.68-1.24 84.63 30.89 96.05 41.71l-.15 1.41-3.07.25c-21-1.07-28.62-4.64-47.37-14.02-11.73-5.87-17.19-1.72-28.92 2.88l-1.85-1.11c-4.35-7.81-4.31-14.99-8.07-21.92-1.46-2.7-5.84-4.21-6.62-9.2z"/><path fill="#FEFEFE" d="M1715.31 1081.06c30.17-3.72 80.34 17.21 106.08 32.19 10.97 6.38 21.13 14.46 32.15 20.98-.04-4.32-.04-8.64.02-12.96.25-14.97 5.7-26.16 23.51-25.44 3.53.14 8.59 3.77 10.21 6.92 12.95 25.29 1.59 59.18 1.41 86.47.26 13.26 3.92 26.87 2.72 40.06-.44 4.91-8 6.14-12.2 4.75-20.01-6.63-15.92-26.96-23.51-39.52-10.3-17.07-39.84-33.84-57.22-43.41-5.52-2.76-17.81-6.4-23.86-8.2 8.76 17.76 27.34 29.82 41.59 44.32 15.39 15.65 29.64 29.97 44.32 46.76 14.7 16.5 25.05 47.26 23.49 69.05-2.6 36.38-55.06 49.04-84.14 44.77-19.14-2.74-25.3-6.34-42.65-14.62-4.53 13.76-16.46 34-28.67 13.23-11.3-19.22-10.75-38.96-15.83-59.45-8.11-32.79-15.79-65.02-17.34-98.96-1.27-26.97 28.7-35.17 38.48-8.87 9.9 27.05 9.85 58.07 20.45 84.96 4.92 12.47 21.09 28.54 30.08 38.34 16.47-.01 38.38 2.48 53.89-2.95 2.59-.91 6.87-2.89 7.87-5.61 9.62-26.2-111.22-129.07-130.14-149.92-5.65-6.23-10.82-12.93-14.39-20.57-4.05-8.67-6.34-18.91-2.64-28.12 3.13-7.76 8.85-11.29 16.32-14.2zM939.342 730.726c8.34-5.899 16.137-22.489 25.343-19.297 26.922 9.335 48.565 47.155 63.235 69.726a579.103 579.103 0 0 1 24.6 41.676c5.23 9.922 10.53 21.53 16.43 30.87a4155.937 4155.937 0 0 0-14.47-79.11c-5.32-27.801-20.96-69.411 27.52-61.232 16.13 27.875 30.21 136.919 34 171.431l.85 1.483c1.08 1.936 1.18 2.309 1.73 4.532 1.38-2.091 1.34-2.988 1.92-5.468l.56 5.697 1.88 1.814c1.43-1.765 1.03-5.611 1.12-8.399 1.64 9.388 2.44 23.924 3.03 33.645 2 8.644-.51 25.067-4.92 32.523-.3.501-.46 2.139-.54 2.837.29 5.123.72 10.858.08 15.769-1.24 9.427-20.45 14.349-27.33 11.416-16.21-7.421-15.36-34.909-22.76-47.715-24.86-43.068-49.11-86.467-73.566-129.737l-1.078-.217c-10.504 12.233 6.464 137.149-6.149 166.032-23.093 18.883-45.488 25.392-45.19-13.236.103-13.423-1.147-29.524-1.794-43.156l-.16-1.12c-.181-1.337-.206-.814-.07-1.75l-2.162-.867.042-.762 1.529-.18-1.361-1.007.541-.148-.868.479-1.158 8.247-.867.26-.888-2.219c-.665-4.068-.48-7.757-.462-11.874-5.587-35.555-5.021-72.016-4.364-107.831.12-6.567-3-16.332-1.41-21.802l.74.492c-.063 4.967 1.625 20.485 2.471 25.679l3.114-4.711c0-11.856-.597-53.229.832-62.77z"/><path fill="#323132" d="M938.51 793.496c0-11.856-.597-53.229.832-62.77.888 9.426 1.123 21.51.975 31.16-.768 50.215 3.466 100.586 3.526 150.724l-.16-1.12c-.181-1.337-.206-.814-.07-1.75l-2.162-.867.042-.762 1.529-.18-1.361-1.007.541-.148-.868.479-1.158 8.247-.867.26-.888-2.219c-.665-4.068-.48-7.757-.462-11.874-5.587-35.555-5.021-72.016-4.364-107.831.12-6.567-3-16.332-1.41-21.802l.74.492c-.063 4.967 1.625 20.485 2.471 25.679l3.114-4.711z"/><path fill="#757678" d="M937.959 901.669c2.434 3.33 2.76 7.774 1.496 11.649l-1.034.225c-.665-4.068-.48-7.757-.462-11.874z"/><path fill="#323132" d="m1116 884.79.85 1.483c1.08 1.936 1.18 2.309 1.73 4.532 1.38-2.091 1.34-2.988 1.92-5.468l.56 5.697 1.88 1.814c1.43-1.765 1.03-5.611 1.12-8.399 1.64 9.388 2.44 23.924 3.03 33.645 2 8.644-.51 25.067-4.92 32.523-.3.501-.46 2.139-.54 2.837a3427.862 3427.862 0 0 0-5.63-68.664z"/><path fill="#757678" d="M1124.06 884.449c1.64 9.388 2.44 23.924 3.03 33.645l-2.37-1.77c-1.71-4.191-2.87-19.753-3.66-25.29l1.88 1.814c1.43-1.765 1.03-5.611 1.12-8.399z"/><path d="m985.261 917.765 1.194 1.333c.925 10.17 3.893 35.758 2.258 44.289l-1.427.081c-2.931-3.785-2.265-38.784-2.025-45.703z"/><path fill="#FEFEFE" d="M1464.83 815.657c10.64-22.723 15.87-58.057 27.85-82.248 6.48-13.092 14.81-31.993 29.94-37.613 13.01-5.441 17.82 5.032 27.29 8.907 21.66 8.874 20.16 23.363 21.94 44.013 4.38.778 7.06.296 8.8 5.107 3.19 10.852 2.38 21.912 2.32 33.235 1.95 27.442 1.65 29.017 25.08 44.714 17.55 11.764 1.3 32.713-7.37 43.74.55 10.7 5.27 29.114 7.55 39.959 4.12 19.662 7.6 37.457 9.53 57.5-12.03 25.877-28.34 14.505-38.63-4.995-15.03-28.509-20.09-60.286-29.09-90.914-8.73-.233-21.81-1.615-29.7 2.206-9.32 4.521-16.99 63.704-21.95 77.362l-.51 1.392c.4-14.889 1.12-30.718 3.87-45.353 1.83-9.703 6.85-23.52 7.77-32.706l-1.14-.926c-9.3 6.481-14.35 81.995-20.65 93.34-10.72 19.302-35.91 13.564-46.58-2.59-3.14-29.214 8.27-60.954 11.84-89.883-22.27-.102-33.91-22.87-23.78-41.926 7.3-13.734 21.89-17.812 35.62-22.321z"/><path fill="#515153" d="M1574.07 770.291c8.57-5.616 2.17-8.397 6.58-16.468 3.19 10.852 2.38 21.912 2.32 33.235-2.4-10.205 1.36-7.169-8.59-13.668l-.31-3.099z"/><path fill="#323132" d="M1571.85 748.716c4.38.778 7.06.296 8.8 5.107-4.41 8.071 1.99 10.852-6.58 16.468l-2.22-21.575z"/><path d="M1532.77 757.881c.89 1.233 5.36 57.003 5.51 62.755l-18.04.947-4.24.35-.79-1.007c3.42-22.536 11.58-42.312 17.56-63.045z"/><path fill="#FEFEFE" d="M345.911 813.85c2.758-6.959 4.725-19.532 6.976-27.657 7.577-26.676 15.942-57.308 32.666-79.619 16.839-21.343 34.735-9.821 51.53 4.003 12.005 9.881 11.027 27.169 12.228 41.532 2.582-.29 5.233-1.187 7.434.73 5.043 4.392 5.158 14.187 3.04 20.071.54 15.258 3.075 27.472 3.149 44.253 30.539 14.216 40.037 30.354 15.455 58.625 3.426 13.709 38.481 141.952-12.082 105.908-17.176-12.244-33.334-82.038-38.702-105.532-5.441.304-33.23.968-36.044 3.243l-4.459.43c-1.593-.25-.688-.251-2.696.302-6.551 24.031-10.359 47.672-13.82 72.162-2.103 15.609-10.504 34.605-29.29 32.389-27.789-3.278-24.836-32.178-21.492-52.426 2.922-17.691 6.919-33.733 11.174-50.892-18.985-2.189-26.163-17.519-29.541-34.202 9.641-23.986 23.481-24.308 44.474-33.32z"/><path fill="#13090A" d="M449.311 752.109c2.582-.29 5.233-1.187 7.434.73 5.043 4.392 5.158 14.187 3.04 20.071-1.933-1.873-4.558-1.643-6.505-3.543-2.878-2.807-3.404-13.276-3.969-17.258z"/><path d="M408.986 758.554c4.654 4.446 8.104 51.865 9.096 62.26l-13.872.875c-3.657.357-7.845 1.217-10.633-.898 1.237-13.61 11.584-47.288 15.409-62.237z"/><path fill="#FEFEFE" d="M1819.71 699.504c4.06.7 4.5 1.368 6.62 3.955 1.3 9.231-38.34 57.872-45.99 74.965 18.22-16.193 43.65-64.775 64.16-77.267 6.88-.627 11.9-.317 18.78-.022 4.65 3.195 12.46 9.47 13.14 15.012 3.18 25.784-35.45 69.779-47.67 92.177l-.74 1.367c.85 5.09 1.76 10.17 2.73 15.239-9.06 26.623-21.44 16.109-33.66 32.303-16.19 21.471-54.08 108.409-68.57 117.753-6.61 4.262-15.59 4.965-23.13 3.354-5.52-1.179-15-4.899-17.49-10.481-4.62-10.367 8.97-34.719 13.31-44.513 3.41-7.426 10.19-20.907 12-28.02l-1.06.828 1.05.602-1.32-.227 1.19.837-.25 1.016-1.87-.36c-8.1 15.192-17.14 28.664-24.55 44.192 3.19-15.246 10.53-28.004 15.16-42.429 8.96-27.891 24.59-50.747 39.06-76.153-16.9-11.136-41.77-25.894-59.64-35.207-26.57-13.841-33.87-19.336-56.92-39.069-.23-9.51-1.77-23.331 2.46-32.011 1.32-2.706 3.37-4.299 6.17-5.2 22.85-7.327 111.39 44.406 136.65 56.373 18.32-21.744 27.99-45.515 50.38-69.014zM698.018 699.753c3.908.123 4.609.905 6.088 4.145-.481 12.755-36.065 53.489-44.893 72.753 17.949-4.6 55.766-115.55 95.635-62.555 1.472 29.878-21.338 49.799-36.135 73.869-10.32 16.788-12.945 17.338-11.045 38.049 1.227 13.37-24.807 22.048-31.114 29.957-25.818 36.573-40.409 83.719-69.97 117.301-6.583 7.382-20.284 6.186-29.382 5.537-20.456-16.375-7.433-34.161 1.832-53.329 5.063-9.674 10.567-21.585 12.263-32.269-6.74 13.093-21.143 41.004-28.804 52.953 14.632-49.215 28.954-78.702 56.675-122.215-24.647-17.696-103.223-56.314-115.793-75.73-.904-8.367-2.85-19.365.441-27.346 1.527-3.705 4.249-6.182 8.035-7.475 18.071-6.173 84.189 27.563 102.909 37.746 11.251 6.12 21.942 13.179 33.245 19.208 11.832-17.493 35.034-59.84 50.013-70.599zM1125.99 1075.78c31.09.63 45.64.79 48.25 36.27 1.59 21.71.51 48.14-4.71 69.48-11.84 46.99-30.22 93.14-59.21 132.53-8.32 11.3-45.66 47.39-64.33 33.59-6.11-4.53-17.51-32.42-20.6-40.62-1.15-3.06-2.41-23.37-2.78-28.11a485.02 485.02 0 0 0-4.61-41.47c-3.36-22.18-7.39-44.25-12.07-66.18-4.66-22.86-10.024-46.57-10.498-70.03-.089-3.59.578-16.95 4.477-18.3 66.031-22.75 63.271 158.67 81.741 180.87l2.28 1.54c-2.06 4.57-5.38 10.72-5.18 15.59h1.36c29.59-28.08 42.78-122.22 44.64-162.81.6-13.2.6-28.75 1.24-42.35zM181.363 745.654c23.533 2.406 46.108 3.66 69.604.514 3.706-.496 16.891-2.867 19.592-1.527l.388 3.192c1.007 4.2.256 4.325 2.89 6.333l3.643-.345c5.228 4.439 7.529 47.825 6.328 55.329 2.291 39.593 7.743 76.002.183 114.841-2.743 11.088-7.783 25.89-17.003 33.277-36.154 30.133-92.534 19.592-118.246-17.086-15.54-22.17-24.598-39.292-30.734-66.139-4.487-19.634-9.014-38.313-2.732-58.168 7.165-21.404 28.742-22.958 41.043-3.898 3.138 34.93 1.838 73.021 29.221 102.19 4.851 4.886 15.634 10.231 22.657 9.16 24.841-3.79 21.392-41.578 21.448-59.519.067-21.287.887-42.257-1.654-62.772-15.091.021-31.882.814-46.51-2.7-7.849-2.143-6.257-9.293-6.861-15.355-1.564-15.717.461-23.294 6.743-37.327z"/><path fill="#13090A" d="M280.886 850.327c.197-8.188-.173-36.257 2.922-41.177 2.291 39.593 7.743 76.002.183 114.841-2.743 11.088-7.783 25.89-17.003 33.277-2.068-1.75-4.005-2.903-4.762-5.4 16.89-28.131 14.13-42.457 14.852-75.297 1.476-4.244 1.075-9.16 3.385-11.129.23 1.382.017 2.035-.129 3.483l.753-11.311-.201-7.287z"/><path fill="#A2A2A4" d="M280.886 850.327c.197-8.188-.173-36.257 2.922-41.177 2.291 39.593 7.743 76.002.183 114.841l-1.987-.164c1.331-22.939 2.3-43.219-.917-66.213l-.201-7.287z"/><path fill="#757678" d="m282.004 923.827 1.987.164c-2.743 11.088-7.783 25.89-17.003 33.277-2.068-1.75-4.005-2.903-4.762-5.4l3.299-.504c6.136-3.93 14.065-20.699 16.479-27.537z"/><path fill="#323132" d="M270.947 747.833c1.007 4.2.256 4.325 2.89 6.333l3.643-.345c5.228 4.439 7.529 47.825 6.328 55.329-3.095 4.92-2.725 32.989-2.922 41.177-.342-4.296-.711-8.207-1.254-12.482-1.95 2.063-1.105 1.135-1.898 4.495l-.626-1.125c.253-5.61.534-7.088-1.287-12.321-.542-1.813-1.112-17.045-1.283-20.174-1.082-19.763-3.9-41.228-3.591-60.887z"/><path d="M275.821 828.894c1.821 5.233 1.54 6.711 1.287 12.321l.626 1.125c.793-3.36-.052-2.432 1.898-4.495.543 4.275.912 8.186 1.254 12.482l.201 7.287-.753 11.311c.146-1.448.359-2.101.129-3.483-2.31 1.969-1.909 6.885-3.385 11.129-1.118-15.911-1.149-31.736-1.257-47.677zM179.723 779.786c16.637 7.213 21.04 5.918 33.641 10.372l1.114 2.817c-5.214 2.172-28.346 1.117-32.707-2.014-1.994-3.904-1.783-6.802-2.048-11.175zM231.434 936.904c1.44.391.698.009 1.993 1.515-4.381 6.676-22.791 8.932-30.297 8.457l-4.319-2.791.19-.86c14.831-.365 18.929-.038 32.433-6.321z"/><path fill="#13090A" d="M218.016 790.221c5.18.868 10.72 1.522 15.586 3.348l-.903.773c-5.857-.652-11.917 1.219-15.527-.859l.844-3.262z"/><path fill="#FEFEFE" d="M1303.36 743.687a438.802 438.802 0 0 0 89.34.064c.75 14.351 1.39 35.36 3.35 49.086.38 14.782.88 29.562 1.5 44.336 1.27 24.631 4.54 60.696-.03 85.18-1.2 6.463-13.74 27.376-11.56 30.366l5.21.79c-14.19 18.538-35.82 21.974-57.21 20.733-65.81-4.089-93.64-71.88-99.82-128.927-2.95-27.243 1.43-48.346 33.28-47.169 14.15 12.44 13.79 23.285 14.56 41.406-.94 17.953 11.99 65.841 27.5 76.204 60.22 40.249 41.64-91.818 39.49-112.992-38.29-2.518-63.42 11.368-51.75-47.952.38-1.959 4.86-8.999 6.14-11.125z"/><path d="M1357.96 934.976c.97.101.39-.041 1.65.753-7.93 9.992-24.35 12.255-36.23 10.543-2.54-1.266-1.83-.495-3.3-2.651 2.71-1.336 13.68.114 20.18-1.793 7.43-2.179 10.47-3.621 17.7-6.852zM1303.24 781.342c1.05.105 2.45.324 3.24.998 5.89 5.042 20.06 5.082 24.14 9.305-10.8.872-24.66 2.196-27.38-10.303z"/><path fill="#FEFEFE" d="M831.57 823.77c3.413 4.251 5.072 97.016 5.288 109.582-14.592-3.958-27.532-7.505-42.436-10.086-5.466-.843-10.622-2.055-16.011-3.253 10.036-15.471 21.249-22.627 31.726-43.344 9.068-17.932 9.981-40.401 21.433-52.899zm-37.907 90.688 11.304 1.776a1462.412 1462.412 0 0 1 24.026 3.488c-.243-7.366-2.143-66.295-3.684-67.955-5.353 13.728-9.822 29.107-16.811 41.718-3.824 6.902-10.283 14.363-14.835 20.973zM236.433 698.262c50.828-4.201 34.247 34.459 4.894 40.656-6.549.341-13.053.109-19.608-.024-21.291-21.585-14.745-36.125 14.714-40.632zM1365.92 732.903l-.61-3.061c-9.43-4.098-27.92 2.45-35.31-7.203-6.34-22.842 55.41-38.594 60.51-14.122 2.77 13.318-9.34 25.457-22.74 28.188-1.12-1.508-1.13-2.012-1.85-3.802zM787.747 662.111c26.128-3.812 15.221 22.04 10.387 36.181-2.872 8.404-5.595 17.482-12.349 23.496-33.52 1.95-9.278-47.918 1.962-59.677zM1081.65 1263.81c4.4-9.39 6.27-21.28 9.49-31.24 3.31-10.24 6.63-20.59 9.57-30.93 7.29-31.22 11.82-65.78 11.88-97.89.01-6.26-1.75-25.5 3.32-28.28 1.88 1.37 2.94 2.69 3.02 5.24 1.84 61.08-7.23 130.04-35 184.64l-2.28-1.54zM1120.5 885.337c-8.67-44.702-10.82-90.951-21.47-135.627-1.55-6.494-4.28-17.384-2.83-23.826l1.27-.17c5.5 7.192 7.57 16.17 8.64 24.989 5.05 41.463 18.17 92.139 17.95 133.746-.09 2.788.31 6.634-1.12 8.399l-1.88-1.814-.56-5.697z"/><path fill-opacity=".988" d="M1401.25 786.434c2.41 11.633-1.06 28.867 1.58 42.112.21 3.962.32 9.205 1.05 12.988-.61 25.995 2.27 49.594-.31 75.795-2.85 17.097-5.42 22.53-17.61 35.39-2.18-2.99 10.36-23.903 11.56-30.366 4.57-24.484 1.3-60.549.03-85.18-.62-14.774-1.12-29.554-1.5-44.336 1.66 1.134 2.86 2.911 4.05 4.498l.74-.44.41-10.461z"/><path fill="#FEFEFE" d="M1403.88 841.534c.29-2.901.62-5.248 1.09-8.125l1.02.173 2.16 4.924c4.39 36.663 6.53 46.023-1.4 82.537l-3.18-3.714c2.58-26.201-.3-49.8.31-75.795z"/><path fill="#C5C7C7" d="m1332.67 1096.52 2.58-.07c-1.24 1.66-41.5 10.63-47.59 12.03-29.89 6.91-58.86 14.68-87.89 24.63l-4.2 1.15c24.51-17.39 106.19-34.32 137.1-37.74z"/><path fill="#FEFEFE" d="M385.322 894.87c3.507 5.695.674 4.137 1.925 9.844-.196 7.074-4.623 45.822-9.283 49.188l-1.493-1.377c-3.754-13.285 3.424-45.393 8.851-57.655z"/><path fill="#515153" d="M1401.25 786.434c1.13-8.724-4.18-14.373-1.82-32.217.48.568.99 2.88 1.24 3.752.94 5.848 1.99 11.776 2.51 17.667 1.66 6.091 2.38 17.379 1.63 23.684l3.34 39.186-2.16-4.924-1.02-.173c-.47 2.877-.8 5.224-1.09 8.125-.73-3.783-.84-9.026-1.05-12.988-2.64-13.245.83-30.479-1.58-42.112z"/><path fill="#A2A2A4" d="M1402.83 828.546c.01-8.262-.43-20.708.59-28.376l1.39-.85 3.34 39.186-2.16-4.924-1.02-.173c-.47 2.877-.8 5.224-1.09 8.125-.73-3.783-.84-9.026-1.05-12.988z"/><path fill="#757678" d="M1400.67 757.969c.94 5.848 1.99 11.776 2.51 17.667-4.91-2.839-3.02-12.794-2.51-17.667z"/><path fill="#A2A2A4" d="M1531.98 1227.63c5.66 15.9 6.77 59.24 4.52 76.18-1.41-8.26-5.7-68.26-4.52-76.18z"/><path fill="#FEFEFE" d="M1367.77 736.705c-6.96 1.265-25.37 3.937-28.34-4.802 1.84-.388 19.71 1.317 26.49 1 .72 1.79.73 2.294 1.85 3.802z"/><path fill="#C5C7C7" d="M1385.96 952.719c12.19-12.86 14.76-18.293 17.61-35.39l3.18 3.714c-3.5 13.443-7.67 21.08-15.58 32.466l-5.21-.79zM387.102 879.837l4.459-.43c-.933 5.732-2.982 20.812-4.314 25.307-1.251-5.707 1.582-4.149-1.925-9.844 1.375-5.137 2.466-9.756 1.78-15.033z"/></svg>